# xmcd
#
# Track frame offsets:
# 150
# 17712
# 39645
# 62245
# 80360
# 98092
# 115230
# 134195
# 148947
# 173320
#
# Disc length: 2618 seconds
#
#
# Revision: 1
# Processed by: cddbd v1.5.2PL0 Copyright (c) Steve Scherf et al.
# Submitted via: FreeRIP 2.95 
#
DISCID=880a380a
DTITLE=özge lal - unutulur silerim
DYEAR=0006
DGENRE=fantazi
TTITLE0=unutur silerim
TTITLE1=vur bir daha
TTITLE2=gittin gideli
TTITLE3=hatırlar
TTITLE4=bomboş satırlar
TTITLE5=kör olsun
TTITLE6=döneceğim
TTITLE7=oh olsun
TTITLE8=sebebim olursun
TTITLE9=yalancı
EXTD=
EXTT0=
EXTT1=
EXTT2=
EXTT3=
EXTT4=
EXTT5=
EXTT6=
EXTT7=
EXTT8=
EXTT9=
PLAYORDER=
